
<svg width="24" height="24" viewBox="0 0 24 24" fill="none" xmlns="http://www.w3.org/2000/svg">
<path d="M18.8496 3.94434C19.7431 3.94441 20.5996 4.29982 21.2314 4.93164C21.8633 5.56346 22.2187 6.41995 22.2188 7.31348V16.6865C22.2188 17.5801 21.8633 18.4374 21.2314 19.0693C20.5997 19.7009 19.743 20.0556 18.8496 20.0557H5.15039C4.25703 20.0556 3.40034 19.7009 2.76855 19.0693C2.13667 18.4374 1.78125 17.5801 1.78125 16.6865V7.31348C1.78132 6.41995 2.13673 5.56346 2.76855 4.93164C3.40038 4.29982 4.25687 3.94441 5.15039 3.94434H18.8496ZM3.47363 16.6865C3.47363 17.1314 3.65026 17.5585 3.96484 17.873C4.27933 18.1873 4.70577 18.3642 5.15039 18.3643H18.8496C19.2942 18.3642 19.7207 18.1873 20.0352 17.873C20.3497 17.5585 20.5264 17.1314 20.5264 16.6865V9.96191H3.47363V16.6865ZM17.7676 14.0381C17.9919 14.0381 18.2076 14.1275 18.3662 14.2861C18.5247 14.4447 18.6142 14.6596 18.6143 14.8838C18.6143 15.1082 18.5249 15.3238 18.3662 15.4824C18.2076 15.6411 17.9919 15.7305 17.7676 15.7305H15.6045C15.3803 15.7304 15.1654 15.6409 15.0068 15.4824C14.8482 15.3238 14.7588 15.1082 14.7588 14.8838C14.7589 14.6596 14.8483 14.4447 15.0068 14.2861C15.1654 14.1276 15.3803 14.0382 15.6045 14.0381H17.7676ZM5.15039 5.63672C4.7056 5.63679 4.27936 5.81341 3.96484 6.12793C3.65033 6.44245 3.47371 6.86869 3.47363 7.31348V8.27051H20.5264V7.31348C20.5263 6.86869 20.3497 6.44245 20.0352 6.12793C19.7206 5.81341 19.2944 5.63679 18.8496 5.63672H5.15039Z" fill="white" stroke="white" stroke-width="0.25"/>
</svg>
